<?xml version="1.0" standalone="no"?>
<!DOCTYPE svg PUBLIC "-//W3C//DTD SVG 20010904//EN"
 "http://www.w3.org/TR/2001/REC-SVG-20010904/DTD/svg10.dtd">
<svg version="1.0" xmlns="http://www.w3.org/2000/svg"
 width="700.000000pt" height="700.000000pt" viewBox="0 0 700.000000 700.000000"
 preserveAspectRatio="xMidYMid meet">
<metadata>
Created by potrace 1.14, written by Peter Selinger 2001-2017
</metadata>
<g transform="translate(0.000000,700.000000) scale(0.100000,-0.100000)"
fill="#000000" stroke="none">
<path d="M3280 6994 c-19 -2 -84 -9 -145 -14 -639 -62 -1264 -315 -1795 -726
-149 -115 -481 -446 -595 -594 -410 -532 -653 -1132 -727 -1795 -17 -155 -17
-575 0 -730 75 -673 332 -1300 748 -1820 114 -143 339 -372 484 -494 537 -451
1163 -717 1885 -803 142 -17 586 -17 730 0 682 79 1268 318 1802 734 138 107
389 351 512 498 451 538 717 1162 803 1885 16 139 16 595 0 730 -77 629 -275
1158 -620 1649 -234 333 -577 668 -917 896 -460 308 -968 495 -1535 566 -117
15 -552 27 -630 18z m-251 -2304 c239 -457 437 -830 440 -830 3 1 198 373 433
828 l426 827 411 3 411 2 0 -1770 0 -1770 -360 0 -360 0 0 1160 c0 764 -3
1160 -10 1160 -5 0 -67 -114 -136 -252 -69 -139 -281 -536 -471 -881 -276
-502 -348 -626 -358 -615 -29 32 -662 1221 -790 1483 -77 160 -145 292 -150
295 -6 3 -11 -427 -13 -1172 l-2 -1178 -360 0 -360 0 0 1770 0 1770 408 0 407
0 434 -830z m2581 -3220 l0 -170 -2110 0 -2110 0 0 170 0 170 2110 0 2110 0 0
-170z"/>
</g>
</svg>
