<svg width="20" height="20" viewBox="0 0 20 20" fill="none" xmlns="http://www.w3.org/2000/svg">
<path fill-rule="evenodd" clip-rule="evenodd" d="M0 9.92378C0 4.44569 4.47984 0 10 0C15.5202 0 20 4.44569 20 9.92378C20 15.4019 15.5202 19.8476 10 19.8476C4.47984 19.8476 0 15.4019 0 9.92378ZM15.875 8.77134C16.0565 8.87538 16.1855 8.9274 16.3952 8.9274C16.8871 8.9274 17.3306 8.53925 17.3306 7.99505C17.3306 7.51886 17.125 7.27077 16.8105 7.0907C14.5565 5.7862 11.4718 5.17797 8.52823 5.17797C6.79839 5.17797 5.20968 5.37405 3.79032 5.7862C3.42742 5.89024 3.08871 6.19836 3.08871 6.74257C3.08871 7.27477 3.49597 7.68693 4.02823 7.68693C4.18964 7.68693 4.34264 7.6424 4.47319 7.6044C4.49918 7.59684 4.52429 7.58953 4.54839 7.58289C7.87097 6.66254 13.004 7.07069 15.875 8.77134ZM14.7029 11.8372C14.8303 11.9059 14.9614 11.9766 15.1452 11.9766C15.5847 11.9766 15.9234 11.6284 15.9274 11.1963C15.9274 10.8481 15.7984 10.6 15.4718 10.408C13.4798 9.23152 10.9516 8.58727 8.33468 8.58727C6.65726 8.58727 5.5121 8.81936 4.39113 9.13148C3.97581 9.24752 3.76613 9.53163 3.76613 9.95979C3.76613 10.388 4.11694 10.7361 4.54839 10.7361C4.68185 10.7361 4.77386 10.7079 4.89021 10.6724C4.93205 10.6596 4.97704 10.6458 5.02823 10.6321C8.37097 9.73171 12.129 10.3279 14.6492 11.8085C14.6671 11.8179 14.685 11.8275 14.7029 11.8372ZM13.629 14.4575C13.7863 14.5495 13.8911 14.6016 14.0605 14.6016C14.3871 14.6016 14.6734 14.3495 14.6734 13.9853C14.6734 13.6212 14.5282 13.4811 14.2823 13.3251C11.4032 11.6164 8.02823 11.5524 4.72581 12.2767C4.42339 12.3407 4.17742 12.5368 4.17742 12.9489C4.17742 13.2731 4.42339 13.5812 4.81452 13.5812C4.90634 13.5812 5.05287 13.5417 5.18771 13.5054C5.22458 13.4954 5.26059 13.4857 5.29436 13.4771C8.18548 12.8889 11.1129 12.9529 13.629 14.4575Z" fill="white"/>
</svg>
